<svg width="256" height="256" viewBox="0 0 256 256" fill="none" xmlns="http://www.w3.org/2000/svg">
<path d="M173.052 74.4362C177.871 71.6664 183.287 76.9762 180.614 81.8493L157.216 124.505C156.125 126.493 156.149 128.906 157.279 130.871L181.524 173.052C184.294 177.871 178.984 183.287 174.111 180.614L131.455 157.216C129.467 156.125 127.054 156.149 125.089 157.279L82.9081 181.524C78.0893 184.294 72.6725 178.984 75.3456 174.111L98.7442 131.455C99.8345 129.467 99.8104 127.054 98.6807 125.089L74.4362 82.9081C71.6664 78.0893 76.9762 72.6725 81.8493 75.3456L124.505 98.7442C126.493 99.8345 128.906 99.8104 130.871 98.6807L173.052 74.4362Z" fill="#4C976A" stroke="black"/>
<path d="M122.205 57.7119C123.707 52.3607 131.293 52.3607 132.795 57.7119L145.945 104.553C146.558 106.735 148.265 108.442 150.447 109.055L197.288 122.205C202.639 123.707 202.639 131.293 197.288 132.795L150.447 145.945C148.265 146.558 146.558 148.265 145.945 150.447L132.795 197.288C131.293 202.639 123.707 202.639 122.205 197.288L109.055 150.447C108.442 148.265 106.735 146.558 104.553 145.945L57.7119 132.795C52.3607 131.293 52.3607 123.707 57.7119 122.205L104.553 109.055C106.735 108.442 108.442 106.735 109.055 104.553L122.205 57.7119Z" fill="#B73A59" stroke="black"/>
<path d="M191.705 38.7119C193.207 33.3607 200.793 33.3607 202.295 38.7119L204.376 46.123C204.989 48.3056 206.694 50.0112 208.877 50.624L216.288 52.7051C221.639 54.2074 221.639 61.7926 216.288 63.2949L208.877 65.376C206.694 65.9888 204.989 67.6944 204.376 69.877L202.295 77.2881C200.793 82.6393 193.207 82.6393 191.705 77.2881L189.624 69.877C189.011 67.6944 187.306 65.9888 185.123 65.376L177.712 63.2949C172.361 61.7926 172.361 54.2074 177.712 52.7051L185.123 50.624C187.306 50.0112 189.011 48.3056 189.624 46.123L191.705 38.7119Z" fill="#839BE6" stroke="black"/>
<path d="M54.7051 180.712C56.2074 175.361 63.7926 175.361 65.2949 180.712L67.376 188.123C67.9888 190.306 69.6944 192.011 71.877 192.624L79.2881 194.705C84.6393 196.207 84.6393 203.793 79.2881 205.295L71.877 207.376C69.6944 207.989 67.9888 209.694 67.376 211.877L65.2949 219.288C63.7926 224.639 56.2074 224.639 54.7051 219.288L52.624 211.877C52.0112 209.694 50.3056 207.989 48.123 207.376L40.7119 205.295C35.3607 203.793 35.3607 196.207 40.7119 194.705L48.123 192.624C50.3056 192.011 52.0112 190.306 52.624 188.123L54.7051 180.712Z" fill="#839BE6" stroke="black"/>
</svg>
